<svg width="500" height="500" xmlns="http://www.w3.org/2000/svg" xmlns:xlink="http://www.w3.org/1999/xlink" overflow="hidden"><defs><linearGradient x1="84.7286" y1="3.5933" x2="84.7286" y2="174.56" gradientUnits="userSpaceOnUse" spreadMethod="pad" id="fill0"><stop offset="0" stop-color="#1F2B5B"/><stop offset="1" stop-color="#20AA99"/></linearGradient></defs><g><rect x="0" y="0" width="500" height="500" fill="#FFFFFF"/><g><g><g><path d="M154.12 129.943C154.12 129.943 154.064 130.446 153.864 131.309 152.698 136.413 146.549 154.097 117.362 154.456 106.628 154.587 95.2459 154.638 84.6894 154.643 74.133 154.638 62.7509 154.587 52.0172 154.456 22.8995 154.097 16.7093 136.497 15.5198 131.347 15.4871 131.212 15.4591 131.081 15.4358 130.96 15.3005 130.311 15.2586 129.938 15.2586 129.938 11.676 146.204 13.7332 157.451 18.3467 165.232 18.6312 165.6 18.9158 165.96 19.191 166.309 21.4161 169.118 23.2307 171.156 24.229 172.243 24.6348 172.686 24.9054 172.971 25.022 173.087 25.036 173.101 25.05 173.115 25.0593 173.129 36.7866 183 53.1694 182.65 53.1694 182.65L84.6894 182.65 116.21 182.65C116.21 182.65 132.658 183 144.385 173.073 144.404 173.059 144.422 173.041 144.441 173.027 145.024 172.42 147.604 169.668 150.972 165.344 150.972 165.339 150.972 165.339 150.976 165.335 155.627 157.554 157.717 146.279 154.12 129.943Z" fill="#1F2B5B" transform="matrix(-1.0041 -1.22966e-16 1.22465e-16 -1 336.083 290)"/><path d="M154.531 78.6998 84.6568 0 14.8527 78.7092C-1.62335 97.2844-4.76276 125.968 7.30041 148.364 10.953 155.151 15.0253 160.954 18.3467 165.237 18.6312 165.605 18.9158 165.964 19.191 166.314 21.4161 169.122 23.2307 171.161 24.229 172.248 24.6348 172.691 24.9054 172.975 25.022 173.092 24.882 172.924 24.7328 172.747 24.5882 172.579 19.1117 165.913 14.3396 154.736 14.0364 146.251 13.8545 141.18 14.3489 136.152 15.5198 131.351 15.5478 131.221 15.5804 131.095 15.6131 130.964 17.0125 125.385 19.3216 120.119 22.531 115.426L84.6988 24.4715 146.867 115.426C150.141 120.217 152.478 125.614 153.864 131.314 155.039 136.128 155.538 141.166 155.357 146.251 155.049 154.951 150.039 166.487 144.385 173.078 144.371 173.097 144.352 173.115 144.338 173.134 144.362 173.115 144.394 173.078 144.441 173.031 145.024 172.425 147.604 169.673 150.972 165.348 150.972 165.344 150.972 165.344 150.976 165.339 154.433 160.894 158.71 154.787 162.494 147.632 174.244 125.39 170.82 97.0465 154.531 78.6998Z" fill="url(#fill0)" transform="matrix(-1.0041 -1.22966e-16 1.22465e-16 -1 336.083 290)"/><path d="M75.4298 74.8141 93.9724 74.8141 93.9724 132.462 75.4298 132.462Z" fill="#1F2B5B" transform="matrix(-1.0041 -1.22966e-16 1.22465e-16 -1 336.083 290)"/><path d="M75.4298 74.8141 93.9724 74.8141 93.9724 132.462 75.4298 132.462Z" fill="#1F2B5B" transform="matrix(-1.83948e-16 1 -1.0041 -1.84199e-16 355.1 101.663)"/></g></g></g><g><g><g><path d="M121.648 79.1377C121.648 74.3753 125.522 70.5005 130.285 70.5005 135.047 70.5005 138.922 74.3753 138.922 79.1377 138.922 83.9002 135.047 87.7746 130.285 87.7746 125.522 87.7746 121.648 83.9002 121.648 79.1377ZM55.7295 101.198C57.4552 105.09 60.3348 107.794 64.0568 109.015 68.2882 110.407 72.9829 109.977 77.2761 107.808 79.4299 106.719 81.4106 105.333 83.4187 103.888 85.3769 102.479 87.377 100.966 89.3639 99.3911 89.4372 99.3335 89.4965 99.264 89.5405 99.1874 95.5408 95.1762 102.538 93.0554 109.785 93.0554 114.058 93.0554 118.239 93.7872 122.218 95.2312L122.218 97.1284 99.5372 97.1284 99.5372 113.71 122.218 113.71 122.218 137.583 139.233 137.583 139.233 113.71 142.655 113.71C145.042 118.661 146.252 123.979 146.252 129.522 146.252 138.139 143.19 146.501 137.631 153.066L138.306 153.745C138.7 153.413 139.099 153.062 139.492 152.698L139.52 152.671C145.885 145.747 149.391 136.753 149.391 127.342 149.391 122.39 148.439 117.58 146.563 113.047 144.469 107.985 141.211 103.351 137.14 99.649 133.048 95.9274 128.103 93.1172 122.837 91.5216 119.33 90.4569 115.671 89.9157 111.963 89.9157 102.951 89.9157 94.245 93.1659 87.4477 99.0667 85.4743 100.606 83.5208 102.061 81.6414 103.389 79.4452 104.942 77.5594 106.159 75.4937 107.059 70.8524 109.081 65.3785 108.777 61.5489 106.287 58.7747 104.483 56.6569 100.976 55.8836 96.9053 55.176 93.1791 55.508 88.7571 56.7937 84.7717 59.6907 75.7931 68.8819 70.7317 74.1026 68.5135 82.0415 65.1417 91.1955 63.8527 100.575 64.7873 106.763 65.403 115.368 67.462 121.403 73.738 120.441 75.3129 119.887 77.1614 119.887 79.1377 119.887 84.8704 124.552 89.5342 130.285 89.5342 136.017 89.5342 140.682 84.8704 140.682 79.1377 140.682 73.4038 136.017 68.7401 130.285 68.7401 127.052 68.7401 124.161 70.2231 122.252 72.5442 121.637 71.9145 121.005 71.3245 120.367 70.791 114.793 66.1272 106.808 63.4758 97.2737 63.1209 87.0928 62.744 77.5217 64.8047 69.5967 69.0826 65.4843 71.3017 62.0796 73.9937 59.4764 77.0822 56.7539 80.3129 55.0566 84.2309 54.4307 88.7266 53.7603 93.5475 54.1973 97.7433 55.7295 101.198" fill="#11325B" transform="matrix(1.00276 0 0 1 120.106 80.2518)"/><path d="M123.662 79.1377C123.662 82.7953 126.627 85.7605 130.285 85.7605 133.943 85.7605 136.908 82.7953 136.908 79.1377 136.908 75.4797 133.943 72.5137 130.285 72.5137 126.627 72.5137 123.662 75.4797 123.662 79.1377ZM122.698 87.933 122.698 89.2157C128.766 90.6543 134.255 93.589 138.753 97.6099L138.753 87.0886C136.634 89.3444 133.624 90.7538 130.285 90.7538 127.385 90.7538 124.734 89.6926 122.698 87.933ZM161.433 113.231 149.119 113.231C147.046 107.156 143.437 101.794 138.753 97.6087L161.433 97.6087 161.433 113.231" fill="#20AA99" transform="matrix(1.00276 0 0 1 120.106 80.2518)"/></g></g></g><text fill="#20AA99" font-family="1,1_MSFontService,sans-serif" font-weight="400" font-size="45" transform="translate(67.4999 358)">UNDERSTAND</text><path d="M67.9999 362.564 159.25 362.564 250.5 362.564 341.75 362.564 433 362.564 433 364.564 341.75 364.564 250.5 364.564 159.25 364.564 67.9999 364.564Z" fill="#20AA99" fill-rule="evenodd"/><text fill="#20AA99" font-family="1,1_MSFontService,sans-serif" font-weight="400" font-size="27" transform="translate(99.5466 394)">RHABDOMYOLYSIS</text><g><g><g><path d="M199.931 27.6518 192.456 27.6518C192.44 27.6491 192.425 27.6464 192.409 27.6464L43.1277 27.6464C43.1277 27.6464 43.1223 27.6464 43.1182 27.6464L39.303 27.6464 38.1413 21.9188C38.1088 21.7566 37.9641 21.6429 37.7964 21.6484 37.63 21.6551 37.4934 21.7822 37.4745 21.9472L34.7155 45.3213 30.4094 0.305649C30.3932 0.132538 30.2471 0 30.0726 0L30.0699 0C29.8941 0 29.7494 0.136596 29.7359 0.311059L27.5003 27.6477 23.4539 27.6477 22.2231 23.627C22.1853 23.5025 22.0798 23.4119 21.9513 23.3916 21.8228 23.3727 21.6943 23.4282 21.6213 23.535L20.9018 24.5858 19.9659 21.2007C19.9254 21.0546 19.7915 20.9532 19.64 20.9532L19.6346 20.9532C19.4804 20.9559 19.3479 21.0614 19.3114 21.2115L17.587 28.2563 16.2211 24.2261C16.1737 24.0854 16.0412 23.9921 15.8924 23.9962 15.745 24.0002 15.6165 24.099 15.5759 24.241L14.6022 27.6477 0.338108 27.6477C0.151472 27.6477 0 27.7992 0 27.9858 0 28.1725 0.151472 28.324 0.338108 28.324L14.8578 28.324C15.0093 28.324 15.1418 28.2239 15.1824 28.0792L15.9276 25.469 17.3192 29.5723C17.3679 29.7143 17.5045 29.8049 17.6546 29.8022 17.8048 29.7954 17.9332 29.6913 17.9684 29.5452L19.6603 22.6329 20.4447 25.469C20.4799 25.5961 20.5853 25.6908 20.7152 25.7124 20.845 25.7341 20.9762 25.6786 21.0492 25.5704L21.7822 24.4979 22.8804 28.0859C22.9237 28.2279 23.0549 28.3253 23.2037 28.3253L27.8114 28.3253C27.9872 28.3253 28.1346 28.1901 28.1481 28.0142L30.0983 4.16549 34.3436 48.5374C34.3599 48.7091 34.5032 48.8417 34.6763 48.843L34.6804 48.843C34.8521 48.843 34.9955 48.7146 35.0158 48.5441L37.8978 24.1233 38.6957 28.0535C38.7282 28.2117 38.8662 28.324 39.0271 28.324L60.3279 28.324C60.3279 28.324 60.3333 28.324 60.3373 28.324L190.444 28.324C190.46 28.3267 190.475 28.3294 190.491 28.3294L199.931 28.3294 199.931 27.6532Z" fill="#20AA99" transform="matrix(1 0 0 1.00307 25.0351 334)"/></g></g></g><g><g><g><path d="M199.931 27.6518 192.456 27.6518C192.44 27.6491 192.425 27.6464 192.409 27.6464L43.1277 27.6464C43.1277 27.6464 43.1223 27.6464 43.1182 27.6464L39.303 27.6464 38.1413 21.9188C38.1088 21.7566 37.9641 21.6429 37.7964 21.6484 37.63 21.6551 37.4934 21.7822 37.4745 21.9472L34.7155 45.3213 30.4094 0.305649C30.3932 0.132538 30.2471 0 30.0726 0L30.0699 0C29.8941 0 29.7494 0.136596 29.7359 0.311059L27.5003 27.6477 23.4539 27.6477 22.2231 23.627C22.1853 23.5025 22.0798 23.4119 21.9513 23.3916 21.8228 23.3727 21.6943 23.4282 21.6213 23.535L20.9018 24.5858 19.9659 21.2007C19.9254 21.0546 19.7915 20.9532 19.64 20.9532L19.6346 20.9532C19.4804 20.9559 19.3479 21.0614 19.3114 21.2115L17.587 28.2563 16.2211 24.2261C16.1737 24.0854 16.0412 23.9921 15.8924 23.9962 15.745 24.0002 15.6165 24.099 15.5759 24.241L14.6022 27.6477 0.338108 27.6477C0.151472 27.6477 0 27.7992 0 27.9858 0 28.1725 0.151472 28.324 0.338108 28.324L14.8578 28.324C15.0093 28.324 15.1418 28.2239 15.1824 28.0792L15.9276 25.469 17.3192 29.5723C17.3679 29.7143 17.5045 29.8049 17.6546 29.8022 17.8048 29.7954 17.9332 29.6913 17.9684 29.5452L19.6603 22.6329 20.4447 25.469C20.4799 25.5961 20.5853 25.6908 20.7152 25.7124 20.845 25.7341 20.9762 25.6786 21.0492 25.5704L21.7822 24.4979 22.8804 28.0859C22.9237 28.2279 23.0549 28.3253 23.2037 28.3253L27.8114 28.3253C27.9872 28.3253 28.1346 28.1901 28.1481 28.0142L30.0983 4.16549 34.3436 48.5374C34.3599 48.7091 34.5032 48.8417 34.6763 48.843L34.6804 48.843C34.8521 48.843 34.9955 48.7146 35.0158 48.5441L37.8978 24.1233 38.6957 28.0535C38.7282 28.2117 38.8662 28.324 39.0271 28.324L60.3279 28.324C60.3279 28.324 60.3333 28.324 60.3373 28.324L190.444 28.324C190.46 28.3267 190.475 28.3294 190.491 28.3294L199.931 28.3294 199.931 27.6532Z" fill="#20AA99" transform="matrix(-1 -1.22465e-16 -1.22841e-16 1.00307 474.965 337)"/></g></g></g></g></svg>